<?xml version="1.0" encoding="UTF-8" standalone="no"?>
<svg
   viewBox="0 0 512 512"
   version="1.1"
   id="svg3014"
   sodipodi:docname="edge.svg"
   inkscape:version="1.2.2 (b0a8486541, 2022-12-01)"
   xmlns:inkscape="http://www.inkscape.org/namespaces/inkscape"
   xmlns:sodipodi="http://sodipodi.sourceforge.net/DTD/sodipodi-0.dtd"
   xmlns="http://www.w3.org/2000/svg"
   xmlns:svg="http://www.w3.org/2000/svg">
  <defs
     id="defs3018" />
  <sodipodi:namedview
     id="namedview3016"
     pagecolor="#505050"
     bordercolor="#eeeeee"
     borderopacity="1"
     inkscape:showpageshadow="0"
     inkscape:pageopacity="0"
     inkscape:pagecheckerboard="0"
     inkscape:deskcolor="#505050"
     showgrid="false"
     inkscape:zoom="1.7109375"
     inkscape:cx="255.41553"
     inkscape:cy="255.41553"
     inkscape:window-width="1774"
     inkscape:window-height="874"
     inkscape:window-x="50"
     inkscape:window-y="110"
     inkscape:window-maximized="1"
     inkscape:current-layer="svg3014" />
  <!--! Font Awesome Pro 6.4.0 by @fontawesome - https://fontawesome.com License - https://fontawesome.com/license (Commercial License) Copyright 2023 Fonticons, Inc. -->
  <path
     d="M120.1 37.44C161.1 12.23 207.7-.7753 255 .0016C423 .0016 512 123.8 512 219.5C511.9 252.2 499 283.4 476.1 306.7C453.2 329.9 422.1 343.2 389.4 343.7C314.2 343.7 297.9 320.6 297.9 311.7C297.9 307.9 299.1 305.5 302.7 302.3L303.7 301.1L304.1 299.5C314.6 288 320 273.3 320 257.9C320 179.2 237.8 115.2 136 115.2C98.46 114.9 61.46 124.1 28.48 142.1C55.48 84.58 111.2 44.5 119.8 38.28C120.6 37.73 120.1 37.44 120.1 37.44V37.44zM135.7 355.5C134.3 385.5 140.3 415.5 152.1 442.7C165.7 469.1 184.8 493.7 208.6 512C149.1 500.5 97.11 468.1 59.2 422.7C21.12 376.3 0 318.4 0 257.9C0 206.7 62.4 163.5 136 163.5C172.6 162.9 208.4 174.4 237.8 196.2L234.2 197.4C182.7 215 135.7 288.1 135.7 355.5V355.5zM469.8 400L469.1 400.1C457.3 418.9 443.2 435.2 426.9 449.6C396.1 477.6 358.8 495.1 318.1 499.5C299.5 499.8 281.3 496.3 264.3 488.1C238.7 477.8 217.2 458.1 202.7 435.1C188.3 411.2 181.6 383.4 183.7 355.5C183.1 335.4 189.1 315.2 198.7 297.3C212.6 330.4 236.2 358.6 266.3 378.1C296.4 397.6 331.8 407.6 367.7 406.7C398.7 407 429.8 400 457.9 386.2L459.8 385.3C463.7 383 467.5 381.4 471.4 385.3C475.9 390.2 473.2 394.5 470.2 399.3C470 399.5 469.9 399.8 469.8 400V400z"
     id="path3012"
     style="fill:#a39ec4;fill-opacity:1" />
  <path
     style="fill:#a39ec4;fill-opacity:1;stroke-width:0.584475"
     d="m 367.6347,342.76125 c -15.27272,-1.13947 -32.4697,-4.35238 -42.6021,-7.95935 -15.47165,-5.50767 -26.63777,-15.27273 -26.65269,-23.30848 -0.006,-3.09238 1.85061,-6.84584 4.58188,-9.26437 0.69156,-0.61238 1.25739,-1.31833 1.25739,-1.56877 0,-0.25044 1.46287,-2.37954 3.25083,-4.73133 4.1039,-5.39806 9.15241,-15.64482 10.88974,-22.10247 1.20463,-4.47759 1.33497,-6.23742 1.32023,-17.82648 -0.0149,-11.68613 -0.15871,-13.52454 -1.5777,-20.16438 -10.51899,-49.22125 -51.10722,-89.85265 -109.15251,-109.26864 -15.51366,-5.18927 -31.39094,-8.55097 -50.26484,-10.64259 -10.27501,-1.13868 -38.03364,-0.95736 -48.80365,0.31878 -26.250812,3.11048 -51.692114,10.5431 -73.489452,21.46977 -3.781715,1.89571 -6.875846,3.24559 -6.875846,2.99971 0,-1.06242 8.693163,-16.27301 13.278244,-23.2332 17.530202,-26.610952 43.100527,-53.365647 70.914964,-74.19959 3.35949,-2.516373 6.37118,-4.887061 6.69264,-5.268196 1.86776,-2.214479 23.25434,-13.37765 35.14388,-18.344083 C 187.06025,6.5035041 218.59319,0.27561743 253.60086,0.30127974 306.65874,0.34017379 353.80293,11.999198 394.81279,35.223788 460.20454,72.256263 505.01014,138.06634 511.10134,206.0274 c 2.16516,24.15731 -1.89098,46.56973 -12.24471,67.65872 -17.82938,36.31576 -50.56161,60.85946 -90.6156,67.94652 -8.37891,1.48255 -28.4027,2.03909 -40.60633,1.12861 z"
     id="path1344" />
</svg>
