<?xml version="1.0" encoding="UTF-8" standalone="no"?>
<svg
   viewBox="0 0 576 512"
   version="1.1"
   id="svg3534"
   sodipodi:docname="folder-open.svg"
   inkscape:version="1.2.2 (b0a8486541, 2022-12-01)"
   xmlns:inkscape="http://www.inkscape.org/namespaces/inkscape"
   xmlns:sodipodi="http://sodipodi.sourceforge.net/DTD/sodipodi-0.dtd"
   xmlns="http://www.w3.org/2000/svg"
   xmlns:svg="http://www.w3.org/2000/svg">
  <defs
     id="defs3538" />
  <sodipodi:namedview
     id="namedview3536"
     pagecolor="#505050"
     bordercolor="#eeeeee"
     borderopacity="1"
     inkscape:showpageshadow="0"
     inkscape:pageopacity="0"
     inkscape:pagecheckerboard="0"
     inkscape:deskcolor="#505050"
     showgrid="false"
     inkscape:zoom="1.7109375"
     inkscape:cx="287.56164"
     inkscape:cy="255.41553"
     inkscape:window-width="1774"
     inkscape:window-height="874"
     inkscape:window-x="50"
     inkscape:window-y="110"
     inkscape:window-maximized="1"
     inkscape:current-layer="svg3534" />
  <!--! Font Awesome Pro 6.4.0 by @fontawesome - https://fontawesome.com License - https://fontawesome.com/license (Commercial License) Copyright 2023 Fonticons, Inc. -->
  <path
     d="M88.7 223.8L0 375.8V96C0 60.7 28.7 32 64 32H181.5c17 0 33.3 6.7 45.3 18.7l26.5 26.5c12 12 28.3 18.7 45.3 18.7H416c35.3 0 64 28.7 64 64v32H144c-22.8 0-43.8 12.1-55.3 31.8zm27.6 16.1C122.1 230 132.6 224 144 224H544c11.5 0 22 6.1 27.7 16.1s5.7 22.2-.1 32.1l-112 192C453.9 474 443.4 480 432 480H32c-11.5 0-22-6.1-27.7-16.1s-5.7-22.2 .1-32.1l112-192z"
     id="path3532"
     style="fill:#9ec3c4;fill-opacity:1" />
  <path
     style="fill:#9ec3c4;fill-opacity:1;stroke-width:0.584475"
     d="M 0.29776687,232.87012 C 0.29163403,75.619537 0.03887266,86.06814 4.1263582,74.604496 11.144937,54.920393 27.407416,40.013615 48.098886,34.297682 l 5.672803,-1.567088 h 68.968041 68.96803 l 5.71462,1.577695 c 6.88047,1.899565 15.4974,5.885929 20.79221,9.618894 2.13722,1.506796 11.90778,10.686507 21.71235,20.399358 22.51735,22.306714 27.2539,25.591733 43.20803,29.966792 l 5.59562,1.534475 68.38357,0.319579 68.38356,0.319579 5.6516,1.547403 c 23.32812,6.387231 40.36512,23.224211 46.53552,45.989211 1.48393,5.47478 1.52949,6.16909 1.73995,26.51697 l 0.21613,20.89498 H 311.62668 c -112.09109,0 -169.98509,0.20224 -173.93544,0.60763 -18.47223,1.89561 -36.1951,12.20047 -46.199926,26.86268 -1.206426,1.76804 -21.594109,36.48585 -45.305955,77.15069 C 22.473511,336.70137 2.4497458,371.02466 1.6881024,372.3105 l -1.38480611,2.3379 z"
     id="path1776" />
</svg>
