<?xml version="1.0" encoding="UTF-8" standalone="no"?>
<svg
   viewBox="0 0 512 512"
   version="1.1"
   id="svg48"
   sodipodi:docname="image.svg"
   inkscape:version="1.2.2 (b0a8486541, 2022-12-01)"
   xmlns:inkscape="http://www.inkscape.org/namespaces/inkscape"
   xmlns:sodipodi="http://sodipodi.sourceforge.net/DTD/sodipodi-0.dtd"
   xmlns="http://www.w3.org/2000/svg"
   xmlns:svg="http://www.w3.org/2000/svg">
  <defs
     id="defs52" />
  <sodipodi:namedview
     id="namedview50"
     pagecolor="#ffffff"
     bordercolor="#000000"
     borderopacity="0.25"
     inkscape:showpageshadow="2"
     inkscape:pageopacity="0.0"
     inkscape:pagecheckerboard="0"
     inkscape:deskcolor="#d1d1d1"
     showgrid="false"
     inkscape:zoom="1.7109375"
     inkscape:cx="148.45662"
     inkscape:cy="255.41553"
     inkscape:window-width="1778"
     inkscape:window-height="898"
     inkscape:window-x="50"
     inkscape:window-y="90"
     inkscape:window-maximized="1"
     inkscape:current-layer="svg48" />
  <!--! Font Awesome Pro 6.4.0 by @fontawesome - https://fontawesome.com License - https://fontawesome.com/license (Commercial License) Copyright 2023 Fonticons, Inc. -->
  <path
     d="M0 96C0 60.7 28.7 32 64 32H448c35.3 0 64 28.7 64 64V416c0 35.3-28.7 64-64 64H64c-35.3 0-64-28.7-64-64V96zM323.8 202.5c-4.5-6.6-11.9-10.5-19.8-10.5s-15.4 3.9-19.8 10.5l-87 127.6L170.7 297c-4.6-5.7-11.5-9-18.7-9s-14.2 3.3-18.7 9l-64 80c-5.8 7.2-6.9 17.1-2.9 25.4s12.4 13.6 21.6 13.6h96 32H424c8.9 0 17.1-4.9 21.2-12.8s3.6-17.4-1.4-24.7l-120-176zM112 192a48 48 0 1 0 0-96 48 48 0 1 0 0 96z"
     id="path46"
     style="fill:#a39ec4;fill-opacity:1" />
  <path
     style="fill:#a39ec4;stroke-width:0.584475;fill-opacity:1"
     d="M 56.604799,479.24639 C 49.96318,478.47115 43.218882,476.42791 36.52968,473.16446 18.279311,464.26068 6.3338263,449.0746 1.5632824,428.71233 L 0.33088707,423.45205 0.13909929,261.84475 C 0.01393394,156.3759 0.1528642,97.598024 0.53904161,92.639269 1.7067889,77.644687 5.8560608,67.03971 15.068687,55.503469 24.565816,43.610967 40.635653,34.826504 56.694064,32.749251 c 5.969406,-0.772179 392.642466,-0.772179 398.611876,0 10.21548,1.321434 21.60799,5.713804 29.58617,11.406919 13.10395,9.350785 22.41793,23.957786 25.76719,40.410338 0.99377,4.881747 1.04846,13.823585 1.04846,171.433492 0,157.60991 -0.0547,166.55175 -1.04846,171.43349 -5.7139,28.06843 -27.89467,48.62471 -55.93784,51.84101 -5.97227,0.68497 -392.241206,0.6577 -398.116661,-0.0281 z M 434.40535,413.92716 c 12.30373,-6.01734 17.45491,-21.42871 11.0666,-33.10923 -1.86604,-3.41191 -121.73745,-179.34452 -123.63004,-181.44906 -2.24841,-2.50022 -7.85793,-5.74513 -11.75553,-6.80016 -4.62809,-1.25277 -10.20212,-0.93831 -14.92729,0.84212 -7.23613,2.72655 -5.40908,0.3071 -53.51305,70.8639 l -44.46593,65.2207 -12.81837,-16.07655 c -7.0501,-8.84211 -13.97045,-17.23868 -15.37857,-18.65905 -5.26763,-5.31346 -13.52692,-7.92642 -20.96197,-6.63167 -4.38882,0.76428 -9.35702,3.16493 -12.35363,5.9693 -2.83784,2.65579 -67.253902,83.27488 -68.922853,86.25951 -5.203381,9.30533 -3.503365,21.03279 4.166599,28.74306 2.954041,2.96956 7.49246,5.62463 11.079657,6.48181 1.034643,0.24723 79.864737,0.40959 175.177977,0.36078 l 173.2968,-0.0887 z M 122.0766,191.1474 c 16.66563,-3.43879 30.25876,-15.6628 35.77339,-32.17023 2.35528,-7.05029 2.987,-17.47302 1.48582,-24.51503 C 155.9485,118.57216 145.60427,105.86531 130.92529,99.562632 120.65491,95.152856 107.55216,94.613357 96.944313,98.163469 81.518442,103.32602 69.835502,115.5675 65.363159,131.25448 c -1.735803,6.08842 -1.902863,18.4104 -0.327353,24.14512 2.435414,8.86469 5.76536,15.02456 11.46499,21.20839 11.752656,12.7511 28.441134,18.07498 45.575804,14.53941 z"
     id="path958" />
</svg>
