<?xml version="1.0" encoding="UTF-8" standalone="no"?>
<svg
   viewBox="0 0 512 512"
   version="1.1"
   id="svg4581"
   sodipodi:docname="power-off.svg"
   inkscape:version="1.2.2 (b0a8486541, 2022-12-01)"
   xmlns:inkscape="http://www.inkscape.org/namespaces/inkscape"
   xmlns:sodipodi="http://sodipodi.sourceforge.net/DTD/sodipodi-0.dtd"
   xmlns="http://www.w3.org/2000/svg"
   xmlns:svg="http://www.w3.org/2000/svg">
  <defs
     id="defs4585" />
  <sodipodi:namedview
     id="namedview4583"
     pagecolor="#505050"
     bordercolor="#eeeeee"
     borderopacity="1"
     inkscape:showpageshadow="0"
     inkscape:pageopacity="0"
     inkscape:pagecheckerboard="0"
     inkscape:deskcolor="#505050"
     showgrid="false"
     inkscape:zoom="0.60490775"
     inkscape:cx="454.61477"
     inkscape:cy="218.21509"
     inkscape:window-width="1774"
     inkscape:window-height="874"
     inkscape:window-x="50"
     inkscape:window-y="110"
     inkscape:window-maximized="1"
     inkscape:current-layer="svg4581" />
  <!--! Font Awesome Pro 6.4.0 by @fontawesome - https://fontawesome.com License - https://fontawesome.com/license (Commercial License) Copyright 2023 Fonticons, Inc. -->
  <path
     d="M288 32c0-17.7-14.3-32-32-32s-32 14.3-32 32V256c0 17.7 14.3 32 32 32s32-14.3 32-32V32zM143.5 120.6c13.6-11.3 15.4-31.5 4.1-45.1s-31.5-15.4-45.1-4.1C49.7 115.4 16 181.8 16 256c0 132.5 107.5 240 240 240s240-107.5 240-240c0-74.2-33.8-140.6-86.6-184.6c-13.6-11.3-33.8-9.4-45.1 4.1s-9.4 33.8 4.1 45.1c38.9 32.3 63.5 81 63.5 135.4c0 97.2-78.8 176-176 176s-176-78.8-176-176c0-54.4 24.7-103.1 63.5-135.4z"
     id="path4579"
     style="fill:#a39ec4;fill-opacity:1" />
  <path
     style="fill:#a39ec4;stroke-width:0.584475;fill-opacity:1"
     d="M 241.97403,495.28663 C 189.11437,492.26898 138.27113,471.39182 98.253677,436.27244 39.526755,384.73359 9.9521949,309.85521 17.58703,232.03653 23.251548,174.30046 49.946618,120.51507 92.790298,80.516533 106.8055,67.432049 112.14818,64.541072 122.37034,64.510485 c 9.64726,-0.02887 16.11034,2.562574 22.64416,9.079421 10.14117,10.114807 12.43095,23.655222 6.18655,36.583614 -1.66683,3.451 -3.10545,5.31611 -6.76238,8.76712 -18.39713,17.36119 -24.04556,23.46164 -31.92887,34.48402 -29.603703,41.3917 -39.80967,93.60354 -28.048036,143.48858 6.285975,26.66094 18.740236,51.3707 36.681256,72.77711 7.00227,8.3548 19.79473,20.39472 28.90251,27.20228 24.81989,18.55149 51.69823,29.52839 83.15995,33.96186 11.26475,1.58739 36.11062,1.46284 47.05756,-0.2359 28.90424,-4.48532 52.77779,-13.75137 75.38993,-29.26112 18.33662,-12.57716 35.73701,-30.35746 47.76144,-48.80424 21.31281,-32.69614 31.2485,-71.45632 28.21186,-110.05739 C 428.15874,198.4175 408.44329,157.10942 376.97989,128 c -3.82203,-3.53607 -8.54248,-8.00731 -10.4899,-9.93607 -6.03012,-5.97235 -9.08997,-13.48806 -9.07666,-22.294415 0.0135,-8.916465 2.73227,-15.314331 9.29802,-21.880083 6.70201,-6.702007 12.93804,-9.285231 22.44587,-9.29802 5.66298,-0.0076 11.87708,1.662765 16.09776,4.327162 6.17115,3.895674 20.92516,17.857211 31.0572,29.389035 55.79276,63.500771 73.86643,152.431801 47.31199,232.797411 -7.85163,23.76255 -20.65846,48.33393 -35.4673,68.04811 -16.9221,22.52745 -38.69044,42.93765 -61.64824,57.80196 -35.76623,23.1573 -74.98856,35.91768 -117.94242,38.37075 -11.33752,0.64747 -14.64921,0.64259 -26.59218,-0.0392 z"
     id="path5067" />
</svg>
