<?xml version="1.0" encoding="UTF-8" standalone="no"?>
<svg
   viewBox="0 0 512 512"
   version="1.1"
   id="svg3996"
   sodipodi:docname="repeat.svg"
   inkscape:version="1.2.2 (b0a8486541, 2022-12-01)"
   xmlns:inkscape="http://www.inkscape.org/namespaces/inkscape"
   xmlns:sodipodi="http://sodipodi.sourceforge.net/DTD/sodipodi-0.dtd"
   xmlns="http://www.w3.org/2000/svg"
   xmlns:svg="http://www.w3.org/2000/svg">
  <defs
     id="defs4000" />
  <sodipodi:namedview
     id="namedview3998"
     pagecolor="#505050"
     bordercolor="#eeeeee"
     borderopacity="1"
     inkscape:showpageshadow="0"
     inkscape:pageopacity="0"
     inkscape:pagecheckerboard="0"
     inkscape:deskcolor="#505050"
     showgrid="false"
     inkscape:zoom="0.42773438"
     inkscape:cx="299.25114"
     inkscape:cy="317.95433"
     inkscape:window-width="1774"
     inkscape:window-height="874"
     inkscape:window-x="50"
     inkscape:window-y="110"
     inkscape:window-maximized="1"
     inkscape:current-layer="svg3996" />
  <!--! Font Awesome Pro 6.4.0 by @fontawesome - https://fontawesome.com License - https://fontawesome.com/license (Commercial License) Copyright 2023 Fonticons, Inc. -->
  <path
     d="M0 224c0 17.7 14.3 32 32 32s32-14.3 32-32c0-53 43-96 96-96H320v32c0 12.9 7.8 24.6 19.8 29.6s25.7 2.2 34.9-6.9l64-64c12.5-12.5 12.5-32.8 0-45.3l-64-64c-9.2-9.2-22.9-11.9-34.9-6.9S320 19.1 320 32V64H160C71.6 64 0 135.6 0 224zm512 64c0-17.7-14.3-32-32-32s-32 14.3-32 32c0 53-43 96-96 96H192V352c0-12.9-7.8-24.6-19.8-29.6s-25.7-2.2-34.9 6.9l-64 64c-12.5 12.5-12.5 32.8 0 45.3l64 64c9.2 9.2 22.9 11.9 34.9 6.9s19.8-16.6 19.8-29.6V448H352c88.4 0 160-71.6 160-160z"
     id="path3994"
     style="fill:#9ec49f;fill-opacity:1" />
</svg>
