<?xml version="1.0" encoding="UTF-8" standalone="no"?>
<svg
   viewBox="0 0 512 512"
   version="1.1"
   id="svg4574"
   sodipodi:docname="rocket-launch.svg"
   inkscape:version="1.2.2 (b0a8486541, 2022-12-01)"
   xmlns:inkscape="http://www.inkscape.org/namespaces/inkscape"
   xmlns:sodipodi="http://sodipodi.sourceforge.net/DTD/sodipodi-0.dtd"
   xmlns="http://www.w3.org/2000/svg"
   xmlns:svg="http://www.w3.org/2000/svg">
  <defs
     id="defs4578" />
  <sodipodi:namedview
     id="namedview4576"
     pagecolor="#505050"
     bordercolor="#eeeeee"
     borderopacity="1"
     inkscape:showpageshadow="0"
     inkscape:pageopacity="0"
     inkscape:pagecheckerboard="0"
     inkscape:deskcolor="#505050"
     showgrid="false"
     inkscape:zoom="1.7109375"
     inkscape:cx="255.41553"
     inkscape:cy="255.41553"
     inkscape:window-width="1774"
     inkscape:window-height="874"
     inkscape:window-x="50"
     inkscape:window-y="110"
     inkscape:window-maximized="1"
     inkscape:current-layer="svg4574" />
  <!--! Font Awesome Pro 6.4.0 by @fontawesome - https://fontawesome.com License - https://fontawesome.com/license (Commercial License) Copyright 2023 Fonticons, Inc. -->
  <path
     d="M117.8 128H207C286.9-3.7 409.5-8.5 483.9 5.3c11.6 2.2 20.7 11.2 22.8 22.8c13.8 74.4 9 197-122.7 276.9v89.3c0 25.4-13.4 49-35.3 61.9l-88.5 52.5c-7.4 4.4-16.6 4.5-24.1 .2s-12.1-12.2-12.1-20.9l0-114.7c0-22.6-9-44.3-25-60.3s-37.7-25-60.3-25H24c-8.6 0-16.6-4.6-20.9-12.1s-4.2-16.7 .2-24.1l52.5-88.5c13-21.9 36.5-35.3 61.9-35.3zM424 128a40 40 0 1 0 -80 0 40 40 0 1 0 80 0zM166.5 470C132.3 504.3 66 511 28.3 511.9c-16 .4-28.6-12.2-28.2-28.2C1 446 7.7 379.7 42 345.5c34.4-34.4 90.1-34.4 124.5 0s34.4 90.1 0 124.5zm-46.7-36.4c11.4-11.4 11.4-30 0-41.4s-30-11.4-41.4 0c-10.1 10.1-13 28.5-13.7 41.3c-.5 8 5.9 14.3 13.9 13.9c12.8-.7 31.2-3.7 41.3-13.7z"
     id="path4572"
     style="fill:#ceb188;fill-opacity:1" />
  <path
     style="fill:#ceb188;stroke-width:0.584475;fill-opacity:1"
     d="m 241.09589,510.6456 c -4.39506,-1.45982 -5.60794,-2.1776 -8.95633,-5.30033 -3.34479,-3.11935 -5.10087,-5.70641 -6.61969,-9.75212 -1.02147,-2.72089 -1.09944,-6.53126 -1.40444,-68.63425 -0.31378,-63.89161 -0.35732,-65.90237 -1.53758,-71.01369 -4.03865,-17.49013 -11.30954,-30.77724 -23.52768,-42.99538 -12.21814,-12.21814 -25.50525,-19.48903 -42.99538,-23.52768 -5.10882,-1.17968 -7.15337,-1.22442 -71.013694,-1.55379 -47.087401,-0.24286 -66.287901,-0.52899 -67.636184,-1.0079 -6.740216,-2.39418 -13.1127245,-8.19012 -15.432936,-14.0366 -2.01585656,-5.07956 -1.95904736,-13.26943 0.1227804,-17.70057 1.66932,-3.55312 52.3137376,-89.13217 56.4639166,-95.41285 8.308732,-12.57403 23.087173,-23.48819 38.169489,-28.18887 9.990648,-3.11378 12.116488,-3.22216 63.277238,-3.22588 l 47.20175,-0.004 1.86993,-3.06849 C 232.57962,86.656731 265.92576,53.313589 301.53602,32.773114 352.48004,3.3879152 415.68788,-6.4520931 480.14612,4.9676259 c 16.18991,2.8682787 24.01705,10.6952661 26.88678,26.8862551 11.41458,64.400892 1.56038,127.698679 -27.80601,178.610099 -19.79041,34.30988 -50.50859,65.61457 -87.78214,89.45819 L 384,304.68451 l -0.32678,49.88606 c -0.28872,44.07629 -0.4417,50.36166 -1.31354,53.96987 -3.66028,15.14841 -9.71188,26.17446 -19.90489,36.26678 -3.25881,3.22663 -7.76621,7.07674 -10.01643,8.55581 -6.89221,4.53024 -92.13498,54.93674 -95.56165,56.50834 -4.29198,1.96848 -11.16946,2.3059 -15.78082,0.77423 z M 397.0542,166.11696 c 6.19689,-2.1751 10.28871,-4.79576 15.27785,-9.78491 4.95827,-4.95827 7.572,-9.02334 9.82322,-15.27785 1.40867,-3.91365 1.54308,-5.05073 1.54308,-13.0542 0,-8.00347 -0.13441,-9.14055 -1.54308,-13.0542 -2.25122,-6.25451 -4.86495,-10.31958 -9.82322,-15.277852 -4.94256,-4.942565 -8.99354,-7.552362 -15.27804,-9.842697 -3.93336,-1.433483 -5.00989,-1.562325 -13.05401,-1.562325 -8.04412,0 -9.12065,0.128842 -13.05401,1.562325 -6.2845,2.290335 -10.33548,4.900132 -15.27804,9.842697 -7.99026,7.990252 -11.16637,15.287742 -11.56789,26.578632 -0.29332,8.24803 0.60074,12.97297 3.64658,19.27152 5.01432,10.3692 14.55097,18.27093 25.83401,21.40516 5.99575,1.66551 17.56336,1.26817 23.47355,-0.8063 z"
     id="path5060" />
</svg>
