<?xml version="1.0" encoding="UTF-8" standalone="no"?>
<svg
   viewBox="0 0 512 512"
   version="1.1"
   id="svg103"
   sodipodi:docname="screenshot.svg"
   inkscape:version="1.2.2 (b0a8486541, 2022-12-01)"
   xmlns:inkscape="http://www.inkscape.org/namespaces/inkscape"
   xmlns:sodipodi="http://sodipodi.sourceforge.net/DTD/sodipodi-0.dtd"
   xmlns="http://www.w3.org/2000/svg"
   xmlns:svg="http://www.w3.org/2000/svg">
  <defs
     id="defs107" />
  <sodipodi:namedview
     id="namedview105"
     pagecolor="#505050"
     bordercolor="#eeeeee"
     borderopacity="1"
     inkscape:showpageshadow="0"
     inkscape:pageopacity="0"
     inkscape:pagecheckerboard="0"
     inkscape:deskcolor="#505050"
     showgrid="false"
     inkscape:zoom="0.42773438"
     inkscape:cx="252.49315"
     inkscape:cy="296.91324"
     inkscape:window-width="1774"
     inkscape:window-height="874"
     inkscape:window-x="50"
     inkscape:window-y="110"
     inkscape:window-maximized="1"
     inkscape:current-layer="svg103" />
  <!--! Font Awesome Pro 6.4.0 by @fontawesome - https://fontawesome.com License - https://fontawesome.com/license (Commercial License) Copyright 2023 Fonticons, Inc. -->
  <path
     d="M56 0h80c13.3 0 24 10.7 24 24s-10.7 24-24 24H56c-4.4 0-8 3.6-8 8v80c0 13.3-10.7 24-24 24s-24-10.7-24-24V56C0 25.1 25.1 0 56 0zM376 0h80c30.9 0 56 25.1 56 56v80c0 13.3-10.7 24-24 24s-24-10.7-24-24V56c0-4.4-3.6-8-8-8H376c-13.3 0-24-10.7-24-24s10.7-24 24-24zM48 376v80c0 4.4 3.6 8 8 8h80c13.3 0 24 10.7 24 24s-10.7 24-24 24H56c-30.9 0-56-25.1-56-56V376c0-13.3 10.7-24 24-24s24 10.7 24 24zm464 0v80c0 30.9-25.1 56-56 56H376c-13.3 0-24-10.7-24-24s10.7-24 24-24h80c4.4 0 8-3.6 8-8V376c0-13.3 10.7-24 24-24s24 10.7 24 24zM180 128l6.2-16.4c3.5-9.4 12.5-15.6 22.5-15.6h94.7c10 0 19 6.2 22.5 15.6L332 128h36c26.5 0 48 21.5 48 48V336c0 26.5-21.5 48-48 48H144c-26.5 0-48-21.5-48-48V176c0-26.5 21.5-48 48-48h36zM320 256a64 64 0 1 0 -128 0 64 64 0 1 0 128 0z"
     id="path101"
     style="fill:#9ec49f;fill-opacity:1" />
  <path
     style="fill:#9ec49f;stroke-width:2.3379;fill-opacity:1"
     d="m 122.52297,376.80682 c -5.66709,-2.99188 -13.45996,-9.92085 -17.31749,-15.39773 l -7.013699,-9.95798 V 256 160.5489 l 7.013699,-9.95798 c 11.31944,-16.07122 23.06989,-20.8375 51.3713,-20.8375 h 23.75002 l 5.35884,-12.92915 C 193.74997,97.367625 194.97432,97.022831 256,97.022831 c 61.02568,0 62.25003,0.344794 70.31436,19.801439 l 5.35884,12.92915 h 23.75002 c 28.30142,0 40.05187,4.76628 51.3713,20.8375 l 7.0137,9.95798 V 256 351.45111 l -7.0137,9.95798 c -3.85753,5.47688 -11.65041,12.40585 -17.31748,15.39773 l -10.3038,5.43975 H 256 132.82675 Z m 162.14507,-62.5837 c 13.63957,-6.83658 22.12297,-15.23708 29.28555,-28.99938 8.68334,-16.6843 8.68334,-41.76318 0,-58.44748 C 301.70961,203.25048 282.9085,191.95335 256,191.95335 c -26.9085,0 -45.70961,11.29713 -57.95359,34.82291 -8.34517,16.03453 -8.65876,41.75444 -0.69837,57.27853 9.41804,18.36674 23.97116,30.20513 43.45561,35.34942 10.93747,2.88771 32.95487,0.2871 43.86439,-5.18109 z"
     id="path1014" />
</svg>
