<?xml version="1.0" encoding="UTF-8" standalone="no"?>
<svg
   viewBox="0 0 512 512"
   version="1.1"
   id="svg2823"
   sodipodi:docname="search.svg"
   inkscape:version="1.2.2 (b0a8486541, 2022-12-01)"
   xmlns:inkscape="http://www.inkscape.org/namespaces/inkscape"
   xmlns:sodipodi="http://sodipodi.sourceforge.net/DTD/sodipodi-0.dtd"
   xmlns="http://www.w3.org/2000/svg"
   xmlns:svg="http://www.w3.org/2000/svg">
  <defs
     id="defs2827" />
  <sodipodi:namedview
     id="namedview2825"
     pagecolor="#505050"
     bordercolor="#eeeeee"
     borderopacity="1"
     inkscape:showpageshadow="0"
     inkscape:pageopacity="0"
     inkscape:pagecheckerboard="0"
     inkscape:deskcolor="#505050"
     showgrid="false"
     inkscape:zoom="0.85546875"
     inkscape:cx="512"
     inkscape:cy="303.92694"
     inkscape:window-width="1774"
     inkscape:window-height="874"
     inkscape:window-x="50"
     inkscape:window-y="110"
     inkscape:window-maximized="1"
     inkscape:current-layer="svg2823" />
  <!--! Font Awesome Pro 6.4.0 by @fontawesome - https://fontawesome.com License - https://fontawesome.com/license (Commercial License) Copyright 2023 Fonticons, Inc. -->
  <path
     d="M416 208c0 45.9-14.9 88.3-40 122.7L502.6 457.4c12.5 12.5 12.5 32.8 0 45.3s-32.8 12.5-45.3 0L330.7 376c-34.4 25.2-76.8 40-122.7 40C93.1 416 0 322.9 0 208S93.1 0 208 0S416 93.1 416 208zM208 352a144 144 0 1 0 0-288 144 144 0 1 0 0 288z"
     id="path2821"
     style="fill:#cacaca;fill-opacity:1" />
  <path
     style="fill:#cacaca;stroke-width:1.16895;fill-opacity:1"
     d="m 470.22066,509.75219 c -2.40511,-0.85839 -5.82429,-2.50672 -7.59817,-3.66293 -1.77387,-1.15622 -31.82581,-30.94039 -66.78208,-66.18705 -34.95626,-35.24668 -63.96449,-64.08486 -64.46273,-64.08486 -0.49824,0 -6.06947,3.24537 -12.3805,7.21194 C 266.64385,415.934 203.66812,424.11192 145.32652,405.58183 128.38595,400.20128 102.47306,387.34732 88.255708,377.27216 73.921259,367.11401 48.96029,342.13653 38.906598,327.89041 30.289685,315.68022 20.231606,297.11154 14.793727,283.37455 -0.53567684,244.64993 -3.3736678,198.28558 7.0516908,156.89269 19.445852,107.68284 52.136649,62.217907 95.269406,34.203349 145.03376,1.881597 205.51409,-7.5117232 263.00844,8.1514672 c 22.26823,6.0665358 45.37393,17.0091008 64.88197,30.7272748 14.17912,9.970838 39.10342,34.896374 49.37453,49.376966 16.28582,22.960342 29.79727,55.363312 35.00839,83.956662 3.61783,19.85091 3.59641,52.55624 -0.0472,72.09813 -4.89053,26.22959 -16.66975,55.89276 -30.47982,76.75624 -3.26093,4.92643 -5.92896,9.39148 -5.92896,9.92233 0,0.53086 29.66143,30.69193 65.91429,67.02459 62.22292,62.35988 66.02809,66.41204 67.94613,72.35624 7.7377,23.97995 -16.06021,47.73273 -39.45712,39.38229 z M 230.48372,350.69011 c 30.96636,-5.02237 57.10276,-18.43672 79.43622,-40.77017 29.48304,-29.48306 43.71708,-65.85655 42.14293,-107.69163 C 348.07843,96.33643 235.57911,31.241472 140.98808,80.095085 71.445264,116.01199 43.659437,202.3213 78.946975,272.80933 c 19.813438,39.578 57.441815,68.42479 99.902335,76.58744 13.99014,2.68949 14.2025,2.71126 28.0548,2.8777 7.07215,0.085 17.68297,-0.628 23.57961,-1.58436 z"
     id="path3378" />
</svg>
