<?xml version="1.0" encoding="UTF-8" standalone="no"?>
<svg
   viewBox="0 0 448 512"
   version="1.1"
   id="svg3480"
   sodipodi:docname="snooze.svg"
   inkscape:version="1.2.2 (b0a8486541, 2022-12-01)"
   xmlns:inkscape="http://www.inkscape.org/namespaces/inkscape"
   xmlns:sodipodi="http://sodipodi.sourceforge.net/DTD/sodipodi-0.dtd"
   xmlns="http://www.w3.org/2000/svg"
   xmlns:svg="http://www.w3.org/2000/svg">
  <defs
     id="defs3484" />
  <sodipodi:namedview
     id="namedview3482"
     pagecolor="#505050"
     bordercolor="#eeeeee"
     borderopacity="1"
     inkscape:showpageshadow="0"
     inkscape:pageopacity="0"
     inkscape:pagecheckerboard="0"
     inkscape:deskcolor="#505050"
     showgrid="false"
     inkscape:zoom="0.42773438"
     inkscape:cx="893.07762"
     inkscape:cy="81.826483"
     inkscape:window-width="1774"
     inkscape:window-height="874"
     inkscape:window-x="50"
     inkscape:window-y="110"
     inkscape:window-maximized="1"
     inkscape:current-layer="svg3480" />
  <!--! Font Awesome Pro 6.4.0 by @fontawesome - https://fontawesome.com License - https://fontawesome.com/license (Commercial License) Copyright 2023 Fonticons, Inc. -->
  <path
     d="M192 0c-17.7 0-32 14.3-32 32s14.3 32 32 32h32l-57.6 76.8c-7.3 9.7-8.4 22.7-3 33.5s16.5 17.7 28.6 17.7h96c17.7 0 32-14.3 32-32s-14.3-32-32-32H256l57.6-76.8c7.3-9.7 8.4-22.7 3-33.5S300.1 0 288 0H192zM320 224c-17.7 0-32 14.3-32 32s14.3 32 32 32h32l-57.6 76.8c-7.3 9.7-8.4 22.7-3 33.5s16.5 17.7 28.6 17.7h96c17.7 0 32-14.3 32-32s-14.3-32-32-32H384l57.6-76.8c7.3-9.7 8.4-22.7 3-33.5S428.1 224 416 224H320zM32 256c-17.7 0-32 14.3-32 32s14.3 32 32 32h91.7L7.4 459.5c-7.9 9.5-9.7 22.8-4.4 34.1S19.6 512 32 512H192c17.7 0 32-14.3 32-32s-14.3-32-32-32H100.3L216.6 308.5c7.9-9.5 9.7-22.8 4.4-34.1s-16.6-18.4-29-18.4H32z"
     id="path3478"
     style="fill:#ceb188;fill-opacity:1" />
</svg>
