<?xml version="1.0" encoding="UTF-8" standalone="no"?>
<svg
   viewBox="0 0 512 512"
   version="1.1"
   id="svg2422"
   sodipodi:docname="terminal.svg"
   inkscape:version="1.2.2 (b0a8486541, 2022-12-01)"
   xmlns:inkscape="http://www.inkscape.org/namespaces/inkscape"
   xmlns:sodipodi="http://sodipodi.sourceforge.net/DTD/sodipodi-0.dtd"
   xmlns="http://www.w3.org/2000/svg"
   xmlns:svg="http://www.w3.org/2000/svg">
  <defs
     id="defs2426" />
  <sodipodi:namedview
     id="namedview2424"
     pagecolor="#505050"
     bordercolor="#eeeeee"
     borderopacity="1"
     inkscape:showpageshadow="0"
     inkscape:pageopacity="0"
     inkscape:pagecheckerboard="0"
     inkscape:deskcolor="#505050"
     showgrid="false"
     inkscape:zoom="1.7109375"
     inkscape:cx="148.45662"
     inkscape:cy="254.83105"
     inkscape:window-width="1774"
     inkscape:window-height="874"
     inkscape:window-x="50"
     inkscape:window-y="110"
     inkscape:window-maximized="1"
     inkscape:current-layer="svg2422" />
  <!--! Font Awesome Pro 6.4.0 by @fontawesome - https://fontawesome.com License - https://fontawesome.com/license (Commercial License) Copyright 2023 Fonticons, Inc. -->
  <path
     d="M0 96C0 60.7 28.7 32 64 32H448c35.3 0 64 28.7 64 64V416c0 35.3-28.7 64-64 64H64c-35.3 0-64-28.7-64-64V96zm102.3 55.8c-9 9.8-8.3 25 1.5 33.9L180.5 256l-76.7 70.3c-9.8 9-10.4 24.1-1.5 33.9s24.1 10.4 33.9 1.5l96-88c5-4.5 7.8-11 7.8-17.7s-2.8-13.1-7.8-17.7l-96-88c-9.8-9-25-8.3-33.9 1.5zM248 336c-13.3 0-24 10.7-24 24s10.7 24 24 24H392c13.3 0 24-10.7 24-24s-10.7-24-24-24H248z"
     id="path2420"
     style="fill:#9ec49f;fill-opacity:1" />
  <path
     style="fill:#c49ea0;fill-opacity:1"
     d="M 51.43379,478.37654 C 25.346171,472.88193 5.7031616,452.5504 1.2343603,426.41755 0.38309021,421.43946 0.29223744,405.0054 0.29223744,256 0.29223744,73.067772 0.01610135,86.132004 4.1263582,74.604496 11.144937,54.920393 27.407416,40.013615 48.098886,34.297682 l 5.672803,-1.567088 H 256 458.22831 l 5.6728,1.567088 c 20.69147,5.715933 36.95395,20.622711 43.97253,40.306814 4.11026,11.527508 3.83412,-1.536724 3.83412,181.395504 0,182.93223 0.27614,169.86799 -3.83412,181.3955 -7.01858,19.68411 -23.28106,34.59089 -43.97253,40.30682 l -5.6728,1.56709 -200.76712,0.10753 c -195.064031,0.10447 -200.916552,0.0761 -206.0274,-1.0004 z m 346.48864,-94.95823 c 6.6338,-1.72789 10.81597,-4.73407 14.49802,-10.42133 7.96284,-12.29931 3.08516,-28.64413 -10.46344,-35.06238 l -3.92961,-1.86154 H 320 241.9726 l -3.92961,1.86154 c -15.53908,7.36118 -19.15795,27.12543 -7.16548,39.13387 3.33339,3.33783 6.35961,5.08475 10.94937,6.32067 4.73323,1.27455 151.20912,1.30192 156.09555,0.0292 z M 128.19284,366.7189 c 1.71336,-0.59082 3.90149,-1.57206 4.8625,-2.18053 0.96101,-0.60847 24.19654,-21.6734 51.63452,-46.81095 32.72759,-29.98369 50.48677,-46.65094 51.63028,-48.45575 2.674,-4.22043 3.7396,-8.00218 3.7396,-13.27167 0,-5.26949 -1.0656,-9.05124 -3.7396,-13.27167 -1.14146,-1.80158 -18.96592,-18.54493 -51.64376,-48.51141 -39.47286,-36.19768 -50.66973,-46.16085 -53.58078,-47.67705 -14.48084,-7.54226 -31.77137,1.01428 -34.97718,17.30911 -1.345911,6.84114 0.903832,14.70394 5.74681,20.08497 1.19422,1.3269 19.20144,18.03268 40.01605,37.12397 20.81461,19.09128 37.84475,34.81523 37.84475,34.94208 0,0.12685 -17.03014,15.8508 -37.84475,34.94208 -20.81461,19.09129 -38.82183,35.79707 -40.01605,37.12397 -8.412483,9.3471 -7.945078,24.09972 1.04849,33.09329 6.55485,6.55485 16.22525,8.68163 25.27912,5.55956 z"
     id="path2908" />
  <path
     style="fill:#c49ea0;stroke-width:0.584475;fill-opacity:1"
     d="M 51.43379,478.374 C 26.589972,473.15334 7.9057324,454.77678 1.5670117,429.32841 0.69777312,425.83864 0.59697464,410.6469 0.43441406,258.63014 0.23680281,73.836079 -0.00526121,86.151209 4.047509,74.812055 11.837138,53.017626 31.450795,36.641038 54.063927,33.050423 c 2.55852,-0.406254 68.594823,-0.59802 202.228313,-0.58726 214.53272,0.01727 201.97617,-0.168046 211.75135,3.125172 22.398,7.545789 39.0338,27.069061 42.78764,50.214283 1.31675,8.11868 1.31675,332.276082 0,340.394762 -3.75384,23.14522 -20.38964,42.6685 -42.78764,50.21428 -9.77982,3.29478 2.8633,3.11089 -212.33583,3.08847 C 62.795549,479.48002 56.532791,479.44548 51.43379,478.374 Z m 343.746,-94.61639 c 10.70446,-1.2418 18.6829,-8.9381 20.71854,-19.98591 0.58372,-3.16793 0.54484,-4.54229 -0.23694,-8.37586 -1.64198,-8.05171 -6.24144,-13.87125 -13.83491,-17.50485 l -3.79908,-1.81793 H 320 241.9726 l -3.46601,1.62317 c -7.52245,3.52284 -12.39032,9.45361 -14.11234,17.19376 -1.18732,5.33676 -0.54115,10.66832 1.92544,15.8868 3.17259,6.71215 10.6455,12.11754 17.89587,12.94463 5.12762,0.58494 145.94293,0.6187 150.96423,0.0362 z M 128,366.69229 c 1.92877,-0.62313 4.69041,-2.01391 6.13699,-3.09062 2.96096,-2.2039 78.22913,-71.07299 92.58686,-84.7154 7.9535,-7.55725 9.55146,-9.37499 11.0425,-12.56128 3.00097,-6.41292 3.04616,-13.91683 0.12302,-20.43044 -2.04255,-4.55141 -4.42519,-6.87108 -49.68846,-48.37541 -50.40352,-46.2177 -54.32728,-49.70243 -57.83038,-51.35966 -14.42919,-6.8261 -31.354049,2.06893 -34.268358,18.01008 -1.061669,5.80732 0.575684,12.88775 4.107898,17.76383 0.92844,1.28167 19.19935,18.41911 40.60202,38.08319 21.40266,19.66408 38.91394,35.85662 38.91394,35.98342 0,0.1268 -17.47604,16.28697 -38.83564,35.91148 -21.3596,19.62451 -39.49966,36.5515 -40.31123,37.61553 -8.890919,11.6566 -4.590055,29.56258 8.66536,36.07685 5.91338,2.90609 12.03046,3.26108 18.75548,1.08843 z"
     id="path911" />
</svg>
