<?xml version="1.0" encoding="UTF-8" standalone="no"?>
<svg
   viewBox="0 0 448 512"
   version="1.1"
   id="svg3514"
   sodipodi:docname="windows.svg"
   inkscape:version="1.2.2 (b0a8486541, 2022-12-01)"
   xmlns:inkscape="http://www.inkscape.org/namespaces/inkscape"
   xmlns:sodipodi="http://sodipodi.sourceforge.net/DTD/sodipodi-0.dtd"
   xmlns="http://www.w3.org/2000/svg"
   xmlns:svg="http://www.w3.org/2000/svg">
  <defs
     id="defs3518" />
  <sodipodi:namedview
     id="namedview3516"
     pagecolor="#505050"
     bordercolor="#eeeeee"
     borderopacity="1"
     inkscape:showpageshadow="0"
     inkscape:pageopacity="0"
     inkscape:pagecheckerboard="0"
     inkscape:deskcolor="#505050"
     showgrid="false"
     inkscape:zoom="1.7109375"
     inkscape:cx="116.3105"
     inkscape:cy="254.83105"
     inkscape:window-width="1774"
     inkscape:window-height="874"
     inkscape:window-x="50"
     inkscape:window-y="110"
     inkscape:window-maximized="1"
     inkscape:current-layer="svg3514" />
  <!--! Font Awesome Pro 6.4.0 by @fontawesome - https://fontawesome.com License - https://fontawesome.com/license (Commercial License) Copyright 2023 Fonticons, Inc. -->
  <path
     d="M0 93.7l183.6-25.3v177.4H0V93.7zm0 324.6l183.6 25.3V268.4H0v149.9zm203.8 28L448 480V268.4H203.8v177.9zm0-380.6v180.1H448V32L203.8 65.7z"
     id="path3512"
     style="fill:#9ec49f;fill-opacity:1" />
  <path
     style="fill:#9ec49f;fill-opacity:1"
     d="m 338.41096,464.63541 c -58.8274,-8.15 -113.07397,-15.66024 -120.54795,-16.68942 l -13.58904,-1.87123 V 357.32048 268.56621 H 326.13699 448 v 105.49772 105.49771 l -1.31507,-0.054 c -0.72329,-0.0297 -49.44657,-6.72221 -108.27397,-14.87221 z"
     id="path4000" />
  <path
     style="fill:#9ec49f;stroke-width:0.584475;fill-opacity:1"
     d="m 204.27397,155.76256 c 0,-65.424976 0.17675,-90.009135 0.64712,-90.009135 0.35591,0 54.95141,-7.495891 121.32332,-16.657535 66.37191,-9.161643 120.91907,-16.657534 121.2159,-16.657534 0.32796,0 0.53969,41.846027 0.53969,106.666664 V 245.77169 H 326.13699 204.27397 Z"
     id="path911" />
</svg>
